:version 1.10
:name ASF
:units
  mass 1
  length 1
  angle deg
:documentation
  ASF file generated by Kaydara
:root
  axis xyz
  order  tx ty tz rx ry rz
  position 0 0 0
  orientation 0 0 0
:bonedata
  begin
    id 1
    name RightUpLegDummy
    direction -0.718183 -0.695806 0.00816078
    length 4.904
    axis 0 0 0 xyz
  end
  begin
    id 2
    name RightUpLeg
    direction -0.0736652 -0.994202 0.0783343
    length 17.4976
    axis -2.72909 -3.00389 -4.00133 xyz
    dof rx ry rz
  end
  begin
    id 3
    name RightLeg
    direction -0.0389037 -0.994596 -0.0962598
    length 16.5821
    axis 3.95836 -18.5909 -4.46993 xyz
    dof rx ry rz
  end
  begin
    id 4
    name RightFoot
    direction -0.311643 -0.412678 0.855906
    length 3.77069
    axis -1.99483 -18.8351 -3.27644 xyz
    dof rx ry rz
  end
  begin
    id 5
    name RightToes
    direction -0.317852 0.0389852 0.947339
    length 3.85082
    axis -2.00228 -18.1713 -3.25211 xyz
    dof rx ry rz
  end
  begin
    id 6
    name SpineDummy
    direction 8.3039e-015 1 4.44677e-016
    length 4.6813
    axis 0 0 0 xyz
  end
  begin
    id 7
    name Spine
    direction -0.000262373 0.999988 0.00493267
    length 10.1015
    axis -0.00246081 0.00062579 0.0150362 xyz
    dof rx ry rz
  end
  begin
    id 8
    name Spine1
    direction 0 0 0
    length 0
    axis -0.00349562 0.000650293 0.0196666 xyz
    dof rx ry rz
  end
  begin
    id 9
    name HEadDummy
    direction -0.000343232 0.999999 0.00123745
    length 3.43865
    axis -0.00349562 0.000650293 0.0196666 xyz
  end
  begin
    id 10
    name HEad
    direction -0.0461221 0.980933 0.188796
    length 5.12695
    axis -0.00351404 -7.04812 0.0199272 xyz
    dof rx ry rz
  end
  begin
    id 11
    name LeftShoulder1Dummy
    direction 0.998904 -0.0399089 -0.0244534
    length 3.5433
    axis -0.00349562 0.000650293 0.0196666 xyz
  end
  begin
    id 12
    name LeftShoulder1
    direction 0.99951 1.64443e-005 0.0312999
    length 4.05031
    axis -0.00349562 0.000650293 0.0196666 xyz
    dof rx ry rz
  end
  begin
    id 13
    name LeftArm
    direction 0.984791 0.0515299 0.165927
    length 12.9126
    axis -64.823 -10.7743 5.20463 xyz
    dof rx ry rz
  end
  begin
    id 14
    name LeftForeArm
    direction 0.984968 0.0534808 0.16425
    length 10.8596
    axis -30.0462 -7.70601 1.87451 xyz
    dof rx ry rz
  end
  begin
    id 15
    name LeftHand
    direction 0.975871 0.0289682 0.216418
    length 6.62295
    axis -20.1348 -6.98077 1.86072 xyz
    dof rx ry rz
  end
  begin
    id 16
    name RightShoulderDummy
    direction -0.998877 -0.0405946 -0.0244307
    length 3.5433
    axis -0.00349562 0.000650293 0.0196666 xyz
  end
  begin
    id 17
    name RightShoulder
    direction -0.998933 -0.0249743 -0.0388558
    length 4.05031
    axis -0.0205316 -4.02113 1.41395 xyz
    dof rx ry rz
  end
  begin
    id 18
    name RightArm
    direction -0.997559 0.068664 0.0127103
    length 12.9638
    axis -67.3882 1.84188 -6.15987 xyz
    dof rx ry rz
  end
  begin
    id 19
    name RightForeArm
    direction -0.991508 0.0912848 0.0926241
    length 10.8312
    axis -22.1975 3.41087 -4.28711 xyz
    dof rx ry rz
  end
  begin
    id 20
    name RightHand
    direction -0.989262 0.0600788 0.133232
    length 6.57864
    axis -12.2911 2.17515 -4.39675 xyz
    dof rx ry rz
  end
  begin
    id 21
    name LeftUpLegDummy
    direction 0.718183 -0.695806 0.00816078
    length 4.904
    axis 0 0 0 xyz
  end
  begin
    id 22
    name LeftUpLeg
    direction 0.0831398 -0.99469 0.0606531
    length 17.4976
    axis -1.71016 2.29552 4.63832 xyz
    dof rx ry rz
  end
  begin
    id 23
    name LeftLeg
    direction 0.0498442 -0.991778 -0.117862
    length 16.5821
    axis 5.13757 15.5727 5.13348 xyz
    dof rx ry rz
  end
  begin
    id 24
    name LeftFoot
    direction 0.269026 -0.433896 0.85986
    length 3.77069
    axis -0.576502 15.6961 4.10267 xyz
    dof rx ry rz
  end
  begin
    id 25
    name LeftToes
    direction 0.277311 0.0251143 0.960452
    length 3.85048
    axis -0.576502 15.6961 4.10267 xyz
    dof rx ry rz
  end
:hierarchy
  begin
    root RightUpLegDummy SpineDummy LeftUpLegDummy
    RightUpLegDummy RightUpLeg
    RightUpLeg RightLeg
    RightLeg RightFoot
    RightFoot RightToes
    SpineDummy Spine
    Spine Spine1
    Spine1 HEadDummy LeftShoulder1Dummy RightShoulderDummy
    HEadDummy HEad
    LeftShoulder1Dummy LeftShoulder1
    LeftShoulder1 LeftArm
    LeftArm LeftForeArm
    LeftForeArm LeftHand
    RightShoulderDummy RightShoulder
    RightShoulder RightArm
    RightArm RightForeArm
    RightForeArm RightHand
    LeftUpLegDummy LeftUpLeg
    LeftUpLeg LeftLeg
    LeftLeg LeftFoot
    LeftFoot LeftToes
  end

:SAMPLES-PER-SECOND 30
:FULLY-SPECIFIED
:DEGREES
156
root  -1.28055 5.82919 15.2111 -50.9558 -4.2204 2.05536
RightUpLeg  -84.5949 -6.39978 1.17884
RightLeg  91.5499 16.8261 -11.5173
RightFoot  30.4912 2.95977 -7.68473
RightToes  5.82077e-011 -3.18055e-015 -2.98177e-016
Spine  33.554 1.36061 8.8569
Spine1  20.1943 1.95153 0.593882
HEad  -10.0363 18.2956 5.26002
LeftShoulder1  -3.88251e-019 9.70628e-020 -3.87848e-018
LeftArm  -25.0882 71.4761 -66.8691
LeftForeArm  24.9249 -0.725814 -2.19756
LeftHand  -12.2518 -10.9236 76.3011
RightShoulder  5.03715 9.77282 23.7252
RightArm  9.67041 -70.379 3.91086
RightForeArm  -12.2998 13.7833 -8.23947
RightHand  -7.78859 6.50651 -66.8451
LeftUpLeg  -83.7847 4.19681 3.71307
LeftLeg  91.2085 -14.5658 13.4639
LeftFoot  32.5355 -1.11559 2.87665
LeftToes  5.91571e-011 -3.44359e-011 -3.93244e-011
157
root  -1.33923 5.86591 15.2004 -50.7046 -4.55447 1.94401
RightUpLeg  -84.6807 -6.2994 1.78694
RightLeg  91.4237 16.81 -11.5881
RightFoot  30.4338 3.00876 -7.81714
RightToes  5.82077e-011 -3.18055e-015 -2.98177e-016
Spine  33.705 1.43166 10.0736
Spine1  19.7349 2.53003 0.38063
HEad  -9.10352 18.4709 6.3436
LeftShoulder1  -3.88251e-019 9.70628e-020 -3.87848e-018
LeftArm  -23.4902 70.9491 -65.5289
LeftForeArm  26.0825 -0.788053 -2.40185
LeftHand  -12.3069 -11.0984 75.9411
RightShoulder  5.147 9.90066 24.111
RightArm  11.8578 -71.1227 1.09241
RightForeArm  -13.4474 14.5042 -8.45235
RightHand  -7.94488 6.72143 -66.9555
LeftUpLeg  -83.9186 4.44652 4.21898
LeftLeg  91.1952 -14.545 13.2989
LeftFoot  32.6307 -1.04589 2.7054
LeftToes  5.91571e-011 -3.44359e-011 -3.93244e-011
158
root  -1.38061 5.89462 15.2215 -50.2437 -4.28825 2.15975
RightUpLeg  -85.2558 -6.55544 1.76302
RightLeg  91.5331 16.821 -11.5017
RightFoot  30.3751 3.12621 -8.12057
RightToes  5.82077e-011 -3.18055e-015 -2.98177e-016
Spine  33.5541 1.37423 10.2654
Spine1  19.2923 2.62873 0.0976658
HEad  -7.70749 18.8868 7.46031
LeftShoulder1  -3.88251e-019 9.70628e-020 -3.87848e-018
LeftArm  -18.9464 71.3859 -62.9481
LeftForeArm  25.3682 -1.04014 -3.91117
LeftHand  -12.5086 -11.3925 75.8372
RightShoulder  5.19522 9.87975 24.4213
RightArm  16.3053 -71.2964 -2.45202
RightForeArm  -14.6692 15.5768 -8.1693
RightHand  -7.85071 6.48707 -67.3555
LeftUpLeg  -84.2979 4.47075 3.9296
LeftLeg  91.1314 -14.5399 13.3791
LeftFoot  32.5968 -0.983537 2.55942
LeftToes  5.91571e-011 -3.44359e-011 -3.93244e-011
159
root  -1.42172 5.92116 15.2395 -49.8236 -3.84252 2.38513
RightUpLeg  -85.8056 -6.90433 1.55556
RightLeg  91.6518 16.8351 -11.4331
RightFoot  30.3616 3.24769 -8.42584
RightToes  5.82077e-011 -3.18055e-015 -2.98177e-016
Spine  33.4078 1.17361 9.56912
Spine1  19.0801 2.06569 0.361134
HEad  -6.2954 19.7522 8.19238
LeftShoulder1  -3.88251e-019 9.70628e-020 -3.87848e-018
LeftArm  -13.2234 72.563 -59.6388
LeftForeArm  23.6211 -1.55729 -5.79087
LeftHand  -12.6957 -11.6279 75.8716
RightShoulder  5.12305 9.6794 24.3871
RightArm  19.4876 -71.17 -4.03753
RightForeArm  -16.0532 16.9463 -8.25092
RightHand  -7.54775 5.87403 -68.0551
LeftUpLeg  -84.6632 4.4003 3.44203
LeftLeg  91.0675 -14.5275 13.3926
LeftFoot  32.3335 -0.925995 2.43647
LeftToes  5.91571e-011 -3.44359e-011 -3.93244e-011
160
root  -1.48148 5.94972 15.2335 -49.6092 -3.67385 2.36226
RightUpLeg  -85.9641 -6.95983 1.58837
RightLeg  91.6431 16.8415 -11.5035
RightFoot  30.3159 3.28525 -8.52872
RightToes  5.82077e-011 -3.18055e-015 -2.98177e-016
Spine  33.4908 0.932167 8.6413
Spine1  19.1258 1.09725 1.41145
HEad  -5.65662 20.976 8.22364
LeftShoulder1  -3.88251e-019 9.70628e-020 -3.87848e-018
LeftArm  -9.28209 73.4637 -56.443
LeftForeArm  23.8965 -2.78643 -6.29211
LeftHand  -12.6448 -11.8196 75.0041
RightShoulder  4.93895 9.41093 23.8355
RightArm  21.5972 -71.4329 -4.48575
RightForeArm  -17.1424 18.994 -9.24931
RightHand  -7.5402 5.76986 -68.4944
LeftUpLeg  -84.8575 4.52215 3.32685
LeftLeg  91.091 -14.5111 13.1894
LeftFoot  31.8144 -0.849083 2.27763
LeftToes  5.91571e-011 -3.44359e-011 -3.93244e-011
161
root  -1.55851 5.98289 15.2231 -49.4141 -3.82308 2.20375
RightUpLeg  -85.9995 -6.601 1.87308
RightLeg  91.5613 16.8493 -11.7054
RightFoot  30.1999 3.27669 -8.5312
RightToes  5.82077e-011 -3.18055e-015 -2.98177e-016
Spine  33.7072 0.701759 8.05654
Spine1  19.0381 0.207187 2.59476
HEad  -5.88432 22.3192 7.49285
LeftShoulder1  -3.88251e-019 9.70628e-020 -3.87848e-018
LeftArm  -5.07015 73.469 -51.4615
LeftForeArm  26.9489 -4.14652 -5.76812
LeftHand  -12.3661 -12.1595 72.6608
RightShoulder  4.70635 9.21724 22.8414
RightArm  24.7937 -72.2759 -5.78358
RightForeArm  -17.6052 21.1531 -10.5612
RightHand  -8.05641 6.49587 -68.69
LeftUpLeg  -85.0669 5.00429 3.5122
LeftLeg  91.2198 -14.5131 12.9485
LeftFoot  31.1249 -0.779707 2.14126
LeftToes  5.91571e-011 -3.44359e-011 -3.93244e-011
162
root  -1.62594 5.97793 15.2374 -49.5695 -3.63157 2.47442
RightUpLeg  -85.9913 -6.20666 1.5487
RightLeg  91.7359 16.8891 -11.7649
RightFoot  30.112 3.31418 -8.64317
RightToes  5.82077e-011 -3.18055e-015 -2.98177e-016
Spine  34.1826 0.431888 7.41709
Spine1  18.7594 -0.433137 3.16233
HEad  -6.22622 23.6672 6.35674
LeftShoulder1  -3.88251e-019 9.70628e-020 -3.87848e-018
LeftArm  3.37415 72.3863 -42.31
LeftForeArm  30.1317 -5.95459 -5.56647
LeftHand  -12.1045 -12.6709 69.8925
RightShoulder  4.50851 9.16996 21.7601
RightArm  27.4259 -73.2303 -7.05975
RightForeArm  -17.1652 22.0912 -11.1622
RightHand  -8.70812 7.34408 -69.1932
LeftUpLeg  -84.9397 5.50154 3.11279
LeftLeg  91.3596 -14.5441 12.96
LeftFoot  30.4932 -0.787223 2.18956
LeftToes  5.91571e-011 -3.44359e-011 -3.93244e-011
